<?xml version="1.0"?>
<svg width="428" height="926" xmlns="http://www.w3.org/2000/svg" xmlns:svg="http://www.w3.org/2000/svg">
 <defs>
  <clipPath id="clip0_2_84">
   <rect fill="white" height="926" id="svg_1" width="428"/>
  </clipPath>
 </defs>
 <g class="layer">
  <title>Layer 1</title>
  <g clip-path="url(#clip0_2_84)" id="svg_2">
   <path d="m182.19,747l0,-14l6.53,0c1.62,0 2.89,0.31 3.79,0.94c0.91,0.63 1.37,1.52 1.37,2.68c0,1.15 -0.43,2.04 -1.29,2.68c-0.85,0.63 -1.98,0.94 -3.4,0.94l0.38,-0.84c1.58,0 2.8,0.31 3.67,0.94c0.86,0.63 1.29,1.53 1.29,2.72c0,1.23 -0.46,2.19 -1.4,2.9c-0.91,0.69 -2.26,1.04 -4.04,1.04l-6.9,0zm3.22,-2.4l3.56,0c0.75,0 1.32,-0.15 1.71,-0.44c0.38,-0.29 0.57,-0.75 0.57,-1.36c0,-0.59 -0.19,-1.02 -0.57,-1.3c-0.39,-0.29 -0.96,-0.44 -1.71,-0.44l-3.56,0l0,3.54zm0,-5.8l3.03,0c0.7,0 1.24,-0.14 1.59,-0.42c0.37,-0.29 0.54,-0.72 0.54,-1.28c0,-0.56 -0.17,-0.98 -0.54,-1.26c-0.35,-0.29 -0.89,-0.44 -1.59,-0.44l-3.03,0l0,3.4zm16.49,8.36c-1.15,0 -2.17,-0.24 -3.06,-0.72c-0.88,-0.48 -1.58,-1.13 -2.1,-1.96c-0.51,-0.84 -0.76,-1.79 -0.76,-2.86c0,-1.08 0.25,-2.03 0.76,-2.86c0.52,-0.84 1.22,-1.49 2.1,-1.96c0.89,-0.48 1.91,-0.72 3.06,-0.72c1.13,0 2.14,0.24 3.04,0.72c0.89,0.47 1.59,1.11 2.1,1.94c0.5,0.83 0.76,1.79 0.76,2.88c0,1.07 -0.26,2.02 -0.76,2.86c-0.51,0.83 -1.21,1.48 -2.1,1.96c-0.9,0.48 -1.91,0.72 -3.04,0.72zm0,-2.56c0.52,0 0.98,-0.12 1.4,-0.36c0.41,-0.24 0.74,-0.58 0.98,-1.02c0.24,-0.45 0.36,-0.99 0.36,-1.6c0,-0.63 -0.12,-1.16 -0.36,-1.6c-0.24,-0.44 -0.57,-0.78 -0.98,-1.02c-0.42,-0.24 -0.88,-0.36 -1.4,-0.36c-0.52,0 -0.99,0.12 -1.4,0.36c-0.42,0.24 -0.75,0.58 -1,1.02c-0.24,0.44 -0.36,0.97 -0.36,1.6c0,0.61 0.12,1.15 0.36,1.6c0.25,0.44 0.58,0.78 1,1.02c0.41,0.24 0.88,0.36 1.4,0.36zm8.04,2.4l0,-10.76l3.1,0l0,6.4l5.24,-6.4l2.86,0l0,10.76l-3.1,0l0,-6.4l-5.22,6.4l-2.88,0zm5.4,-11.92c-1.17,0 -2.05,-0.25 -2.64,-0.76c-0.58,-0.52 -0.88,-1.3 -0.9,-2.34l2.04,0c0.02,0.45 0.14,0.81 0.38,1.08c0.24,0.27 0.61,0.4 1.1,0.4c0.48,0 0.85,-0.13 1.1,-0.4c0.27,-0.27 0.4,-0.63 0.4,-1.08l2.08,0c0,1.04 -0.3,1.82 -0.9,2.34c-0.6,0.51 -1.48,0.76 -2.66,0.76zm11.1,11.92l0,-8.92l0.7,0.72l-4.34,0l0,-2.56l10.38,0l0,2.56l-4.34,0l0.7,-0.72l0,8.92l-3.1,0zm8.41,0l0,-10.76l3.1,0l0,6.4l5.24,-6.4l2.86,0l0,10.76l-3.1,0l0,-6.4l-5.22,6.4l-2.88,0z" fill="white" id="svg_10"/>
   <path d="m90.51,273.17l0,-9.64l1.27,0l0,3.96l5.01,0l0,-3.96l1.27,0l0,9.64l-1.27,0l0,-4.54l-5.01,0l0,4.54l-1.27,0z" fill="white" id="svg_41"/>
   <path d="m101.14,268.48c0,-1.61 0.42,-2.87 1.29,-3.77c0.86,-0.9 1.97,-1.35 3.31,-1.35c1.36,0 2.47,0.46 3.32,1.38c0.85,0.92 1.29,2.13 1.29,3.62c0,1.5 -0.43,2.69 -1.29,3.61c-0.87,0.92 -1.97,1.37 -3.32,1.37c-0.96,0 -1.81,-0.24 -2.55,-0.74c-0.73,-0.47 -1.26,-1.11 -1.57,-1.87c-0.33,-0.75 -0.48,-1.51 -0.48,-2.25zm1.3,0.01c0,1.1 0.3,2 0.89,2.69c0.6,0.7 1.39,1.04 2.4,1.04c0.98,0 1.77,-0.34 2.38,-1.03c0.61,-0.69 0.92,-1.63 0.92,-2.84c0,-1.23 -0.31,-2.19 -0.92,-2.88c-0.61,-0.69 -1.4,-1.03 -2.37,-1.03c-0.95,0 -1.72,0.33 -2.36,0.98c-0.61,0.64 -0.94,1.67 -0.94,3.07z" fill="white" id="svg_42"/>
   <path d="m113.33,273.17l0,-9.64l3.61,0c1.03,0 1.83,0.22 2.38,0.67c0.55,0.46 0.82,1.05 0.82,1.8c0,0.45 -0.11,0.85 -0.34,1.19c-0.22,0.34 -0.56,0.62 -1.02,0.85c0.55,0.15 0.99,0.44 1.32,0.84c0.33,0.43 0.5,0.92 0.5,1.48c0,0.82 -0.27,1.48 -0.83,2.02c-0.55,0.52 -1.47,0.79 -2.77,0.79l-3.67,0zm1.27,-5.6l2.09,0c0.76,0 1.31,-0.1 1.67,-0.31c0.35,-0.21 0.52,-0.57 0.52,-1.12c0,-0.54 -0.17,-0.92 -0.49,-1.15c-0.33,-0.22 -0.95,-0.33 -1.86,-0.33l-1.93,0l0,2.91zm0,4.46l2.4,0c0.78,0 1.36,-0.13 1.73,-0.4c0.36,-0.27 0.55,-0.68 0.55,-1.24c0,-0.59 -0.2,-1.01 -0.6,-1.28c-0.39,-0.27 -1.02,-0.4 -1.85,-0.4l-2.23,0l0,3.32z" fill="white" id="svg_43"/>
   <path d="m125.05,263.53l0,4.11l2.29,0c1.5,0 2.5,0.29 2.98,0.84c0.48,0.56 0.71,1.18 0.71,1.88c0,0.75 -0.26,1.4 -0.77,1.96c-0.51,0.57 -1.46,0.85 -2.83,0.85l-3.67,0l0,-9.64l1.29,0zm2.34,8.55c0.8,0 1.38,-0.14 1.74,-0.41c0.37,-0.26 0.54,-0.7 0.54,-1.29c0,-0.41 -0.12,-0.75 -0.33,-1.02c-0.23,-0.26 -0.5,-0.45 -0.85,-0.52c-0.34,-0.07 -0.92,-0.11 -1.74,-0.11l-1.72,0l0,3.35l2.36,0zm4.8,-8.55l1.28,0l0,9.64l-1.28,0l0,-9.64z" fill="white" id="svg_44"/>
   <path d="m137.01,273.17l0,-9.64l6.97,0l0,1.14l-5.7,0l0,2.95l5.33,0l0,1.12l-5.33,0l0,3.29l5.91,0l0,1.14l-7.18,0z" fill="white" id="svg_45"/>
   <path d="m157.44,273.17l0,-9.64l3.62,0c1.03,0 1.83,0.22 2.38,0.67c0.55,0.46 0.82,1.05 0.82,1.8c0,0.45 -0.11,0.85 -0.34,1.19c-0.23,0.34 -0.57,0.62 -1.02,0.85c0.55,0.15 0.99,0.44 1.32,0.84c0.32,0.43 0.5,0.92 0.5,1.48c0,0.82 -0.27,1.48 -0.83,2.02c-0.55,0.52 -1.47,0.79 -2.77,0.79l-3.68,0zm1.28,-5.6l2.08,0c0.77,0 1.32,-0.1 1.68,-0.31c0.35,-0.21 0.52,-0.57 0.52,-1.12c0,-0.54 -0.17,-0.92 -0.5,-1.15c-0.32,-0.22 -0.94,-0.33 -1.85,-0.33l-1.93,0l0,2.91zm0,4.46l2.4,0c0.78,0 1.36,-0.13 1.72,-0.4c0.37,-0.27 0.56,-0.68 0.56,-1.24c0,-0.59 -0.2,-1.01 -0.6,-1.28c-0.39,-0.27 -1.02,-0.4 -1.86,-0.4l-2.22,0l0,3.32z" fill="white" id="svg_46"/>
   <path d="m166.78,273.17l3.7,-9.64l1.38,0l3.94,9.64l-1.46,0l-1.12,-2.92l-4.04,0l-1.06,2.92l-1.34,0zm2.8,-3.96l3.27,0l-1.01,-2.67c-0.32,-0.84 -0.55,-1.52 -0.68,-2c-0.12,0.62 -0.29,1.23 -0.52,1.85l-1.06,2.82z" fill="white" id="svg_47"/>
   <path d="m178.16,273.17l0,-9.64l3.65,0c0.83,0 1.5,0.07 2,0.21c0.49,0.14 0.9,0.45 1.23,0.9c0.33,0.47 0.49,1.02 0.49,1.67c0,0.83 -0.27,1.52 -0.79,2.08c-0.52,0.56 -1.47,0.85 -2.82,0.85l-2.48,0l0,3.91l-1.28,0l0,0.02zm3.78,-5.06c0.76,0 1.33,-0.14 1.69,-0.44c0.39,-0.29 0.57,-0.73 0.57,-1.31c0,-0.41 -0.1,-0.76 -0.31,-1.04c-0.21,-0.28 -0.44,-0.47 -0.72,-0.54c-0.27,-0.07 -0.7,-0.11 -1.28,-0.11l-2.46,0l0,3.44l2.51,0z" fill="white" id="svg_48"/>
   <path d="m188.53,263.53l1.16,0l0,7.64l5.13,-7.64l1.29,0l0,9.64l-1.17,0l0,-7.61l-5.14,7.61l-1.27,0l0,-9.64z" fill="white" id="svg_49"/>
   <path d="m198.49,273.17l3.7,-9.64l1.37,0l3.96,9.64l-1.46,0l-1.12,-2.92l-4.03,0l-1.06,2.92l-1.36,0zm2.79,-3.96l3.27,0l-1,-2.67c-0.33,-0.84 -0.55,-1.52 -0.68,-2c-0.13,0.62 -0.3,1.23 -0.53,1.85l-1.06,2.82z" fill="white" id="svg_50"/>
   <path d="m209.91,273.17l0,-9.64l1.28,0l0,3.96l5.01,0l0,-3.96l1.28,0l0,9.64l-1.28,0l0,-4.54l-5.01,0l0,4.54l-1.28,0z" fill="white" id="svg_51"/>
   <path d="m223.39,273.17l0,-8.5l-3.17,0l0,-1.14l7.63,0l0,1.14l-3.19,0l0,8.5l-1.27,0z" fill="white" id="svg_52"/>
   <path d="m231.91,263.53l0,4.11l2.29,0c1.51,0 2.5,0.29 2.98,0.84c0.48,0.56 0.71,1.18 0.71,1.88c0,0.75 -0.26,1.4 -0.77,1.96c-0.51,0.57 -1.46,0.85 -2.83,0.85l-3.67,0l0,-9.64l1.29,0zm0,8.55l2.34,0c0.8,0 1.38,-0.14 1.74,-0.41c0.37,-0.26 0.54,-0.7 0.54,-1.29c0,-0.41 -0.12,-0.75 -0.33,-1.02c-0.21,-0.26 -0.49,-0.45 -0.85,-0.52c-0.34,-0.07 -0.92,-0.11 -1.73,-0.11l-1.71,0l0,3.35zm7.14,-8.55l1.27,0l0,9.64l-1.27,0l0,-9.64z" fill="white" id="svg_53"/>
   <path d="m253.6,268.48c0,-1.61 0.43,-2.87 1.3,-3.77c0.86,-0.9 1.97,-1.35 3.31,-1.35c1.36,0 2.47,0.46 3.32,1.38c0.85,0.92 1.29,2.13 1.29,3.62c0,1.5 -0.43,2.69 -1.29,3.61c-0.87,0.92 -1.97,1.37 -3.32,1.37c-0.96,0 -1.81,-0.24 -2.55,-0.74c-0.72,-0.47 -1.26,-1.11 -1.57,-1.87c-0.33,-0.75 -0.49,-1.51 -0.49,-2.25zm1.32,0.01c0,1.1 0.3,2 0.9,2.69c0.59,0.7 1.38,1.04 2.39,1.04c0.98,0 1.77,-0.34 2.38,-1.03c0.61,-0.69 0.91,-1.63 0.91,-2.84c0,-1.23 -0.31,-2.19 -0.92,-2.88c-0.61,-0.69 -1.4,-1.03 -2.37,-1.03c-0.93,0 -1.73,0.33 -2.37,0.98c-0.6,0.64 -0.92,1.67 -0.92,3.07z" fill="white" id="svg_54"/>
   <path d="m265.89,263.53l6.25,0l0,1.14l-4.97,0l0,2.97l2.29,0c0.85,0 1.54,0.09 2.03,0.24c0.5,0.17 0.91,0.47 1.2,0.92c0.3,0.45 0.46,0.97 0.46,1.56c0,0.5 -0.11,0.95 -0.33,1.37c-0.21,0.42 -0.54,0.77 -0.96,1.03c-0.43,0.27 -1.16,0.39 -2.2,0.39l-3.77,0l0,-9.62zm3.83,8.55c0.69,0 1.2,-0.14 1.54,-0.42c0.34,-0.28 0.51,-0.71 0.51,-1.27c0,-0.39 -0.09,-0.73 -0.29,-1c-0.2,-0.27 -0.47,-0.45 -0.83,-0.53c-0.35,-0.09 -0.95,-0.13 -1.79,-0.13l-1.71,0l0,3.35l2.57,0z" fill="white" id="svg_55"/>
   <path d="m275.05,263.53l1.29,0l3.14,5.9l2.75,-5.9l1.28,0l-3.62,7.5c-0.45,0.94 -0.82,1.55 -1.1,1.84c-0.28,0.3 -0.71,0.44 -1.25,0.44c-0.32,0 -0.73,-0.07 -1.2,-0.23l0,-1.1c0.34,0.2 0.71,0.3 1.09,0.3c0.31,0 0.58,-0.1 0.81,-0.3c0.22,-0.19 0.46,-0.64 0.75,-1.36l-3.94,-7.09z" fill="white" id="svg_56"/>
   <path d="m291.53,273.17l0,-3.89c-1.15,0.42 -2.14,0.63 -3,0.63c-0.67,0 -1.27,-0.15 -1.78,-0.46c-0.51,-0.31 -0.85,-0.71 -1.03,-1.2c-0.17,-0.48 -0.26,-1.11 -0.26,-1.89l0,-2.83l1.28,0l0,2.72c0,1.06 0.2,1.75 0.58,2.07c0.38,0.34 0.85,0.49 1.39,0.49c0.89,0 1.84,-0.19 2.84,-0.6l0,-4.7l1.27,0l0,9.66l-1.29,0z" fill="white" id="svg_57"/>
   <path d="m296.28,273.17l0,-9.64l6.97,0l0,1.14l-5.7,0l0,2.95l5.35,0l0,1.12l-5.35,0l0,3.29l5.93,0l0,1.14l-7.2,0z" fill="white" id="svg_58"/>
   <path d="m306.64,273.17l0,-9.64l1.27,0l0,3.96l5.01,0l0,-3.96l1.27,0l0,9.64l-1.27,0l0,-4.54l-5.01,0l0,4.54l-1.27,0z" fill="white" id="svg_59"/>
   <path d="m317.69,263.53l1.15,0l0,7.64l5.13,-7.64l1.29,0l0,9.64l-1.16,0l0,-7.61l-5.13,7.61l-1.28,0l0,-9.64z" fill="white" id="svg_60"/>
   <path d="m335.01,273.17l0,-4.29l-1.47,0c-0.58,0 -1.04,0.12 -1.38,0.36c-0.32,0.24 -0.82,0.88 -1.48,1.91l-1.28,2l-1.6,0l1.67,-2.62c0.58,-0.9 1.19,-1.49 1.83,-1.76c-0.89,-0.11 -1.56,-0.39 -2.03,-0.87c-0.45,-0.47 -0.69,-1.06 -0.69,-1.76c0,-0.61 0.15,-1.13 0.47,-1.57c0.31,-0.44 0.7,-0.72 1.16,-0.86c0.45,-0.14 1.06,-0.21 1.81,-0.21l4.28,0l0,9.67l-1.29,0zm0,-8.57l-3.05,0c-0.77,0 -1.31,0.15 -1.61,0.48c-0.3,0.32 -0.46,0.69 -0.46,1.1c0,0.53 0.2,0.94 0.6,1.21c0.4,0.27 0.99,0.41 1.79,0.41l2.73,0l0,-3.2z" fill="white" id="svg_61"/>
   <path clip-rule="evenodd" d="m365.31,264.64c2.1,-0.08 3.86,1.54 3.94,3.62c0.09,2.09 -1.53,3.85 -3.63,3.95c-2.08,0.08 -3.85,-1.54 -3.94,-3.62c-0.08,-2.1 1.55,-3.86 3.63,-3.95z" fill="white" fill-rule="evenodd" id="svg_62"/>
   <path clip-rule="evenodd" d="m61.53,264.64c2.09,-0.08 3.85,1.54 3.94,3.62c0.08,2.09 -1.54,3.85 -3.63,3.95c-2.09,0.08 -3.86,-1.54 -3.94,-3.62c-0.1,-2.1 1.53,-3.86 3.63,-3.95z" fill="white" fill-rule="evenodd" id="svg_63"/>
   <path d="m444.7,342.86c2.5,-2.51 6.56,-2.51 9.08,-0.01c2.51,2.49 2.52,6.55 0.02,9.05l-57.47,57.38c-2.5,2.51 -6.56,2.51 -9.08,0.02c-0.82,-0.83 -1.39,-1.82 -1.67,-2.87l-0.01,-0.01l-12.92,-48.04l-52.29,52.21l4.44,-1.18c3.43,-0.9 6.93,1.13 7.85,4.55c0.91,3.42 -1.12,6.92 -4.55,7.84l-27.15,7.25c-2.24,0.75 -4.82,0.24 -6.62,-1.55c-1.67,-1.68 -2.23,-4.05 -1.66,-6.2l-0.01,0l6.88,-25.69c0.92,-3.43 4.45,-5.46 7.89,-4.54c3.44,0.92 5.47,4.44 4.55,7.88l-0.67,2.53l60.06,-59.98c0.77,-0.79 1.77,-1.39 2.92,-1.71c3.43,-0.92 6.95,1.11 7.88,4.53l12.92,48.07l49.61,-49.53z" fill="#32348B" fill-opacity="0.2" id="svg_64" opacity="0.5"/>
   <path d="m43.61,-90.19c-2.67,-3.31 -2.15,-8.16 1.16,-10.83c3.31,-2.68 8.16,-2.16 10.84,1.15l61.16,76.14c2.68,3.31 2.16,8.16 -1.15,10.83c-1.09,0.88 -2.35,1.42 -3.65,1.62l-0.01,0.02l-59.12,9.13l55.66,69.27l-0.83,-5.46c-0.64,-4.21 2.24,-8.13 6.46,-8.78c4.2,-0.63 8.12,2.25 8.77,6.46l5.15,33.37c0.62,2.77 -0.33,5.78 -2.7,7.7c-2.23,1.78 -5.14,2.13 -7.63,1.17l0,0.01l-29.83,-11.58c-3.98,-1.55 -5.96,-6.02 -4.41,-10.01c1.55,-3.98 6.02,-5.95 10.01,-4.41l2.94,1.14l-63.94,-79.56c-0.85,-1.03 -1.44,-2.29 -1.67,-3.71c-0.65,-4.21 2.22,-8.15 6.44,-8.82l59.16,-9.13l-52.81,-65.72z" fill="#BE272E" fill-opacity="0.31" id="svg_65" opacity="0.3"/>
  </g>
 </g>
</svg>