<svg width="698" height="232" viewBox="0 0 698 232" fill="none" xmlns="http://www.w3.org/2000/svg">
<path fill-rule="evenodd" clip-rule="evenodd" d="M105.416 0C108.414 0 110.856 2.43659 110.856 5.42834C110.856 8.4201 108.414 10.8567 105.416 10.8567C102.417 10.8567 99.9748 8.4201 99.9748 5.42834C99.9748 2.43659 102.417 0 105.416 0Z" fill="#BE272E"/>
<path d="M88.3513 177.007V99.2215C88.3513 95.397 89.9897 93.4847 93.2975 93.4847C95.987 93.4847 98.2437 94.7184 100.068 97.1859L150.797 162.912L151.106 162.727V99.2215C151.106 97.6176 151.632 96.2606 152.683 95.1502C153.734 94.0399 155.125 93.4847 156.856 93.4847C160.844 93.4847 162.853 95.397 162.853 99.2215V177.007C162.853 180.677 161.091 182.497 157.567 182.497C154.847 182.497 152.621 181.387 150.952 179.166L100.129 113.286V177.223C100.129 180.739 98.12 182.497 94.1322 182.497C90.268 182.497 88.3513 180.677 88.3513 177.007Z" fill="#BE272E"/>
<path d="M211.14 172.843C218.282 172.843 224.99 170.654 231.265 166.243C233.027 164.978 234.542 164.362 235.779 164.362C238.963 164.362 240.539 165.873 240.539 168.895C240.539 169.852 239.736 171.116 238.159 172.72C235.068 175.743 230.925 178.118 225.732 179.876C220.971 181.479 216.118 182.25 211.202 182.25C200.815 182.25 192.623 178.889 186.626 172.134C181 165.873 178.156 157.946 178.156 148.416C178.156 139.379 181.092 131.73 186.997 125.561C193.241 119.053 201.31 115.784 211.171 115.784C219.982 115.784 227.339 118.838 233.244 124.944C238.777 130.805 241.56 137.775 241.56 145.887C241.56 150.729 238.963 153.135 233.738 153.135H189.934C189.934 158.501 191.974 163.128 196.085 167.014C200.197 170.9 205.205 172.843 211.14 172.843ZM189.934 145.023H229.812C229.812 139.533 228.298 134.968 225.299 131.36C221.929 127.258 217.23 125.222 211.202 125.222C205.174 125.222 200.135 127.165 196.055 131.051C191.974 134.938 189.934 139.595 189.934 145.023Z" fill="#BE272E"/>
<path d="M284.931 172.843C296.029 172.843 301.563 167.446 301.563 156.682V121.274C301.563 117.635 303.572 115.815 307.56 115.815C311.394 115.815 313.31 117.635 313.31 121.305V157.052C313.31 164.917 310.744 171.085 305.644 175.588C300.543 180.091 293.618 182.312 284.901 182.312C276.183 182.312 269.258 180.061 264.157 175.588C259.057 171.116 256.491 164.917 256.491 157.052V121.274C256.491 117.635 258.407 115.784 262.241 115.784C266.229 115.784 268.238 117.604 268.238 121.243V156.682C268.269 167.446 273.833 172.843 284.931 172.843Z" fill="#BE272E"/>
<path d="M338.165 182.25C334.301 182.25 332.353 180.492 332.353 177.007V121.891C332.353 118.221 334.301 116.401 338.165 116.401C341.349 116.401 343.266 117.666 343.977 120.225C344.162 120.935 344.255 123.341 344.255 127.381H344.502C346.079 124.543 348.428 121.984 351.519 119.701C355.044 117.11 358.382 115.815 361.566 115.815C365.431 115.815 367.378 117.511 367.378 120.935C367.378 122.292 367.007 123.341 366.265 124.081C365.523 124.821 362.247 126.271 356.435 128.43C351.489 130.342 348.15 132.964 346.388 136.295C344.966 139.009 344.286 142.833 344.286 147.861V177.285C344.224 180.585 342.214 182.25 338.165 182.25Z" fill="#BE272E"/>
<path d="M406.175 182.25C396.499 182.25 388.647 178.827 382.65 172.011C377.178 165.75 374.457 158.1 374.457 149.125C374.457 140.057 377.178 132.378 382.65 126.024C388.554 119.208 396.375 115.784 406.175 115.784C416.036 115.784 423.919 119.208 429.824 126.024C435.203 132.285 437.892 139.996 437.892 149.125C437.892 158.193 435.172 165.811 429.7 172.011C423.796 178.858 415.975 182.25 406.175 182.25ZM406.175 172.843C413.1 172.843 418.262 170.314 421.724 165.256C424.661 161.061 426.114 155.695 426.114 149.156C426.114 142.833 424.599 137.467 421.601 133.056C417.953 127.844 412.821 125.253 406.175 125.253C399.343 125.253 394.149 127.813 390.625 132.964C387.688 137.312 386.236 142.71 386.236 149.187C386.236 155.664 387.688 161.031 390.625 165.287C394.18 170.314 399.374 172.843 406.175 172.843Z" fill="#BE272E"/>
<path d="M453.875 176.514V92.8987C453.875 91.2949 454.4 89.9378 455.451 88.8274C456.502 87.7171 457.893 87.1619 459.625 87.1619C463.612 87.1619 465.622 88.9817 465.622 92.652V176.514C465.622 180.338 463.612 182.25 459.625 182.25C457.955 182.25 456.595 181.664 455.513 180.523C454.431 179.382 453.875 178.056 453.875 176.514Z" fill="#32348B"/>
<path d="M544.483 121.274V176.791C544.483 180.462 542.597 182.281 538.856 182.281C537.342 182.281 536.043 181.85 534.992 180.955C533.91 180.091 533.292 178.765 533.106 177.007V172.473H532.859C527.697 179.012 520.679 182.25 511.838 182.25C502.378 182.25 494.897 178.796 489.364 171.887C484.356 165.688 481.882 158.193 481.882 149.372C481.882 140.643 484.51 133.025 489.796 126.487C495.701 119.331 503.367 115.753 512.796 115.753C520.648 115.753 527.511 118.652 533.416 124.451C533.416 120.596 533.972 118.19 535.054 117.203C536.167 116.216 537.465 115.722 538.949 115.722C542.659 115.784 544.483 117.635 544.483 121.274ZM493.63 149.156C493.63 155.541 494.99 160.846 497.741 165.04C501.018 170.253 505.995 172.843 512.734 172.843C519.968 172.843 525.316 170.407 528.779 165.503C531.684 161.401 533.137 155.941 533.137 149.156C533.137 142.772 531.684 137.405 528.779 133.056C525.347 127.844 520.246 125.253 513.538 125.253C506.459 125.253 501.265 127.782 497.896 132.84C495.052 136.973 493.63 142.432 493.63 149.156Z" fill="#32348B"/>
<path d="M563.526 176.76V122.107C563.526 120.503 564.051 119.177 565.102 118.036C566.153 116.925 567.544 116.37 569.275 116.37C573.294 116.37 575.273 118.282 575.273 122.107V124.019L575.551 124.266C580.404 118.622 586.958 115.784 595.15 115.784C603.095 115.784 609.34 118.097 613.822 122.755C618.335 127.412 620.592 133.334 620.592 140.551V176.76C620.592 180.246 618.583 182.004 614.595 182.004C612.926 182.004 611.565 181.51 610.483 180.523C609.401 179.536 608.845 178.272 608.845 176.76V140.736C608.845 136.295 607.299 132.593 604.177 129.633C601.055 126.702 597.036 125.222 592.059 125.222C586.989 125.222 582.939 126.702 579.879 129.694C576.818 132.686 575.273 136.449 575.273 140.983V176.791C575.273 180.616 573.356 182.528 569.523 182.528C567.792 182.528 566.339 181.973 565.226 180.863C564.082 179.721 563.526 178.364 563.526 176.76Z" fill="#32348B"/>
<path d="M692.25 87.1619C693.981 87.1619 695.372 87.7171 696.423 88.8274C697.474 89.9378 698 91.2949 698 92.8679V176.76C698 178.272 697.444 179.567 696.362 180.647C695.28 181.726 693.888 182.25 692.25 182.25C690.581 182.25 689.221 181.788 688.139 180.893C687.057 179.968 686.407 178.796 686.253 177.377V173.429H685.975C682.605 179.32 676.608 182.25 667.952 182.25C657.874 182.25 649.898 178.95 643.963 172.35C638.584 166.305 635.894 158.656 635.894 149.372C635.894 140.551 638.491 132.933 643.716 126.487C649.527 119.331 657.163 115.753 666.623 115.753C674.475 115.753 680.936 118.652 685.975 124.451H686.253V92.6211C686.253 91.0481 686.809 89.7219 687.953 88.7041C689.066 87.6862 690.488 87.1619 692.25 87.1619ZM647.673 148.909C647.673 155.294 649.002 160.63 651.66 164.886C655.03 170.191 659.976 172.813 666.499 172.813C673.671 172.813 679.081 170.253 682.79 165.102C685.882 160.753 687.428 155.232 687.428 148.508C687.428 142.278 685.758 136.973 682.389 132.624C678.586 127.659 673.362 125.16 666.746 125.16C660.378 125.16 655.494 127.813 652.031 133.087C649.125 137.59 647.673 142.833 647.673 148.909Z" fill="#32348B"/>
<path fill-rule="evenodd" clip-rule="evenodd" d="M61.611 38.6461C65.3206 38.4919 68.412 41.3603 68.5666 45.0306C68.7211 48.7317 65.8462 51.816 62.1674 51.9702C58.4887 52.1244 55.3664 49.256 55.2118 45.5857C55.0573 41.8846 57.9323 38.8003 61.611 38.6461Z" fill="#BE272E"/>
<path fill-rule="evenodd" clip-rule="evenodd" d="M122.449 49.6262C125.448 49.5028 127.983 51.816 128.106 54.8078C128.23 57.7995 125.911 60.3286 122.913 60.452C119.914 60.5754 117.379 58.2622 117.256 55.2704C117.132 52.2786 119.45 49.7495 122.449 49.6262Z" fill="#BE272E"/>
<path fill-rule="evenodd" clip-rule="evenodd" d="M30.1099 79.9755C33.1086 79.8522 35.6435 82.1654 35.7671 85.1571C35.8908 88.1489 33.5723 90.678 30.5736 90.8014C27.575 90.9248 25.0401 88.6115 24.9164 85.6198C24.7928 82.628 27.1113 80.0989 30.1099 79.9755Z" fill="#BE272E"/>
<path fill-rule="evenodd" clip-rule="evenodd" d="M91.9991 85.6198C96.7907 85.4347 100.84 89.1359 101.026 93.9165C101.211 98.6972 97.5017 102.738 92.7101 102.923C87.9185 103.108 83.8688 99.4065 83.6833 94.6259C83.4669 89.8453 87.2075 85.8048 91.9991 85.6198Z" fill="#BE272E"/>
<path fill-rule="evenodd" clip-rule="evenodd" d="M39.9405 121.953C42.2281 121.86 44.1447 123.618 44.2375 125.901C44.3302 128.183 42.5681 130.095 40.2805 130.188C37.9929 130.28 36.0763 128.522 35.9835 126.24C35.8908 123.957 37.6529 122.045 39.9405 121.953Z" fill="#BE272E"/>
<path fill-rule="evenodd" clip-rule="evenodd" d="M79.8191 95.5203C66.8972 92.3127 52.5533 89.3209 39.9405 88.8891C38.5803 92.6519 35.0252 95.397 30.7591 95.582C27.0186 95.7362 23.6799 93.8857 21.7941 90.9556C-8.25396 101.134 8.19212 144.591 47.0197 146.442C42.6609 142.494 40.0332 138.176 38.9821 133.765C35.3652 133.21 32.5212 130.188 32.3666 126.425C32.1811 122.138 35.5198 118.529 39.8168 118.344C40.4351 118.313 41.0224 118.375 41.6098 118.467C47.3907 108.875 60.8381 100.918 80.4992 98.5429C80.1283 97.556 79.9119 96.569 79.8191 95.5203Z" fill="#32348B"/>
<path fill-rule="evenodd" clip-rule="evenodd" d="M20.3721 44.5063C29.8008 39.9415 40.1569 38.7695 50.853 39.3246C52.8933 35.5618 56.8193 32.9402 61.3946 32.7551C67.6082 32.5084 72.9563 36.7955 74.2237 42.6865C86.0637 45.1539 97.7181 48.3616 108.445 50.1813C109.805 50.4281 111.537 50.5514 113.515 50.5514C115.123 47.3129 118.399 44.9997 122.264 44.8455C125.602 44.7221 128.632 46.1718 130.61 48.5775C142.914 45.74 154.537 39.6331 151.755 29.1157C148.262 16.0383 130.919 7.52566 115.617 4.78065C115.123 9.74635 111.042 13.7559 105.879 13.9718C100.253 14.2186 95.5233 9.86972 95.276 4.25632C66.1862 6.87796 38.8585 21.2507 20.3721 44.5063Z" fill="#32348B"/>
<path fill-rule="evenodd" clip-rule="evenodd" d="M165.11 88.0564C184.431 78.6801 178.928 48.1765 160.875 31.9224C160.133 48.3308 146.716 55.9798 132.218 58.694C130.796 62.3643 127.303 65.0476 123.098 65.2327C118.987 65.4177 115.37 63.1353 113.577 59.7118C111.197 59.5576 108.94 59.28 106.9 58.9407C96.1725 57.0901 84.4871 53.9133 72.8326 51.5076C70.7614 55.147 66.9281 57.6453 62.4147 57.8304C56.3556 58.0771 51.1312 54.0058 49.7092 48.3616C42.0117 48.084 34.5924 48.8859 27.7914 51.415C7.07924 59.1258 1.42203 76.151 0.247315 89.9378C6.15183 84.8179 13.2929 81.9495 21.2995 80.6541C22.938 77.5389 26.153 75.3491 29.9245 75.1949C33.7577 75.0407 37.1892 77.0146 39.044 80.0681C52.275 80.9625 66.8045 84.2627 81.4885 87.9022C83.5906 84.3552 87.393 81.8878 91.8446 81.7027C98.7692 81.4251 104.643 86.7918 104.952 93.7006C125.262 98.4812 132.001 101.781 147.52 97.8952C147.149 96.9083 146.902 95.8288 146.871 94.6876C146.624 89.0742 151.013 84.3244 156.64 84.1085C160.071 83.9543 163.162 85.5272 165.11 88.0564Z" fill="#32348B"/>
<path fill-rule="evenodd" clip-rule="evenodd" d="M673.207 87.1619C675.959 87.1619 678.184 89.3826 678.184 92.1276C678.184 94.8726 675.959 97.0933 673.207 97.0933C670.456 97.0933 668.23 94.8726 668.23 92.1276C668.23 89.3826 670.456 87.1619 673.207 87.1619Z" fill="#32348B"/>
<path fill-rule="evenodd" clip-rule="evenodd" d="M515.362 143.327C518.113 143.327 520.339 145.547 520.339 148.292C520.339 151.037 518.113 153.258 515.362 153.258C512.611 153.258 510.385 151.037 510.385 148.292C510.385 145.547 512.611 143.327 515.362 143.327Z" fill="#32348B"/>
<path fill-rule="evenodd" clip-rule="evenodd" d="M408.339 143.327C411.09 143.327 413.316 145.547 413.316 148.292C413.316 151.037 411.09 153.258 408.339 153.258C405.587 153.258 403.362 151.037 403.362 148.292C403.362 145.547 405.587 143.327 408.339 143.327Z" fill="#BE272E"/>
<path fill-rule="evenodd" clip-rule="evenodd" d="M439.253 87.1619C442.004 87.1619 444.23 89.3826 444.23 92.1276C444.23 94.8726 442.004 97.0933 439.253 97.0933C436.501 97.0933 434.275 94.8726 434.275 92.1276C434.275 89.3826 436.501 87.1619 439.253 87.1619Z" fill="#BE272E"/>
<path fill-rule="evenodd" clip-rule="evenodd" d="M156.732 87.1002C160.72 86.946 164.059 90.0303 164.244 93.9782C164.399 97.9569 161.308 101.288 157.351 101.473C153.363 101.627 150.024 98.5429 149.839 94.5951C149.653 90.6163 152.745 87.2544 156.732 87.1002Z" fill="#BE272E"/>
<path fill-rule="evenodd" clip-rule="evenodd" d="M417.644 97.0933H180.536C177.785 97.0933 175.559 94.8726 175.559 92.1276C175.559 89.3826 177.785 87.1619 180.536 87.1619H417.644C420.395 87.1619 422.621 89.3826 422.621 92.1276C422.621 94.8726 420.395 97.0933 417.644 97.0933Z" fill="#32348B"/>
<path fill-rule="evenodd" clip-rule="evenodd" d="M651.599 97.0933H489.24C486.489 97.0933 484.263 94.8726 484.263 92.1276C484.263 89.3826 486.489 87.1619 489.24 87.1619H651.599C654.35 87.1619 656.576 89.3826 656.576 92.1276C656.576 94.8726 654.35 97.0933 651.599 97.0933Z" fill="#BE272E"/>
<path fill-rule="evenodd" clip-rule="evenodd" d="M66.5262 182.497H26.5858C23.8344 182.497 21.6087 180.277 21.6087 177.532C21.6087 174.786 23.8344 172.566 26.5858 172.566H66.5262C69.2776 172.566 71.5033 174.786 71.5033 177.532C71.5033 180.277 69.2776 182.497 66.5262 182.497Z" fill="#BE272E"/>
<path fill-rule="evenodd" clip-rule="evenodd" d="M4.9771 172.566C7.72842 172.566 9.95421 174.786 9.95421 177.532C9.95421 180.277 7.72842 182.497 4.9771 182.497C2.22579 182.497 0 180.277 0 177.532C0 174.786 2.22579 172.566 4.9771 172.566Z" fill="#32348B"/>
<path fill-rule="evenodd" clip-rule="evenodd" d="M681.43 232H16.817C7.6666 232 0.247315 224.598 0.247315 215.468V215.376C0.247315 206.246 7.6666 198.844 16.817 198.844H681.43C690.581 198.844 698 206.246 698 215.376V215.468C698 224.598 690.581 232 681.43 232Z" fill="#32348B"/>
<path d="M79.6337 225.801V204.704H82.4159V213.371H93.3284V204.704H96.1106V225.801H93.3284V215.869H82.4159V225.801H79.6337Z" fill="white"/>
<path d="M102.819 215.53C102.819 212.014 103.746 209.269 105.632 207.295C107.518 205.321 109.929 204.334 112.866 204.334C115.834 204.334 118.245 205.352 120.1 207.357C121.954 209.361 122.913 212.014 122.913 215.283C122.913 218.553 121.985 221.174 120.1 223.179C118.214 225.184 115.803 226.171 112.866 226.171C110.764 226.171 108.909 225.646 107.301 224.567C105.694 223.518 104.55 222.13 103.87 220.465C103.159 218.83 102.819 217.165 102.819 215.53ZM105.663 215.561C105.663 217.966 106.312 219.94 107.611 221.452C108.909 222.994 110.64 223.734 112.835 223.734C114.968 223.734 116.699 222.994 118.028 221.483C119.358 219.971 120.038 217.905 120.038 215.252C120.038 212.569 119.358 210.472 118.028 208.96C116.699 207.449 114.968 206.709 112.866 206.709C110.795 206.709 109.094 207.418 107.703 208.837C106.374 210.256 105.663 212.507 105.663 215.561Z" fill="white"/>
<path d="M129.405 225.801V204.704H137.288C139.544 204.704 141.276 205.198 142.481 206.185C143.687 207.171 144.274 208.467 144.274 210.102C144.274 211.089 144.027 211.983 143.532 212.723C143.038 213.463 142.296 214.08 141.306 214.574C142.512 214.913 143.47 215.53 144.181 216.424C144.892 217.35 145.263 218.429 145.263 219.663C145.263 221.452 144.676 222.901 143.47 224.073C142.265 225.215 140.255 225.801 137.411 225.801H129.405ZM132.187 213.556H136.731C138.401 213.556 139.606 213.34 140.379 212.877C141.152 212.415 141.523 211.613 141.523 210.41C141.523 209.238 141.152 208.405 140.441 207.912C139.73 207.418 138.37 207.171 136.391 207.171H132.187V213.556ZM132.187 223.302H137.411C139.112 223.302 140.379 223.025 141.183 222.439C141.987 221.853 142.388 220.958 142.388 219.725C142.388 218.429 141.956 217.504 141.09 216.918C140.224 216.332 138.864 216.054 137.04 216.054H132.187V223.302Z" fill="white"/>
<path d="M154.97 204.704V213.71H159.978C163.255 213.71 165.419 214.327 166.47 215.53C167.521 216.764 168.016 218.121 168.016 219.663C168.016 221.298 167.459 222.716 166.347 223.95C165.234 225.184 163.162 225.801 160.164 225.801H152.157V204.704H154.97ZM160.071 223.426C161.833 223.426 163.101 223.117 163.873 222.531C164.677 221.945 165.048 220.989 165.048 219.694C165.048 218.799 164.801 218.059 164.337 217.473C163.843 216.887 163.255 216.486 162.482 216.332C161.74 216.178 160.473 216.085 158.68 216.085H154.939V223.426H160.071ZM170.551 204.704H173.333V225.801H170.551V204.704Z" fill="white"/>
<path d="M181.061 225.801V204.704H196.271V207.202H183.844V213.648H195.467V216.116H183.844V223.302H196.735V225.801H181.061Z" fill="white"/>
<path d="M225.639 225.801V204.704H233.522C235.779 204.704 237.51 205.198 238.715 206.185C239.921 207.171 240.508 208.467 240.508 210.102C240.508 211.089 240.261 211.983 239.767 212.723C239.272 213.463 238.53 214.08 237.541 214.574C238.746 214.913 239.705 215.53 240.416 216.424C241.127 217.35 241.498 218.429 241.498 219.663C241.498 221.452 240.91 222.901 239.705 224.073C238.499 225.215 236.49 225.801 233.646 225.801H225.639ZM228.421 213.556H232.966C234.635 213.556 235.84 213.34 236.613 212.877C237.386 212.415 237.757 211.613 237.757 210.41C237.757 209.238 237.386 208.405 236.675 207.912C235.964 207.418 234.604 207.171 232.625 207.171H228.421V213.556ZM228.421 223.302H233.646C235.346 223.302 236.613 223.025 237.417 222.439C238.221 221.853 238.623 220.958 238.623 219.725C238.623 218.429 238.19 217.504 237.324 216.918C236.459 216.332 235.099 216.054 233.275 216.054H228.421V223.302Z" fill="white"/>
<path d="M246.011 225.801L254.08 204.704H257.078L265.672 225.801H262.488L260.046 219.416H251.235L248.917 225.801H246.011ZM252.101 217.134H259.242L257.047 211.304C256.336 209.454 255.842 207.973 255.563 206.925C255.285 208.282 254.914 209.608 254.42 210.965L252.101 217.134Z" fill="white"/>
<path d="M270.835 225.801V204.704H278.78C280.603 204.704 282.056 204.858 283.138 205.167C284.22 205.475 285.117 206.154 285.828 207.141C286.539 208.158 286.91 209.361 286.91 210.78C286.91 212.6 286.323 214.111 285.179 215.345C284.035 216.579 281.964 217.195 279.027 217.195H273.617V225.77H270.835V225.801ZM279.058 214.728C280.727 214.728 281.964 214.42 282.767 213.772C283.602 213.124 284.004 212.168 284.004 210.903C284.004 210.009 283.788 209.238 283.324 208.621C282.86 208.004 282.366 207.603 281.747 207.449C281.16 207.295 280.233 207.202 278.965 207.202H273.586V214.728H279.058Z" fill="white"/>
<path d="M293.433 204.704H295.968V221.421L307.158 204.704H309.971V225.801H307.437V209.145L296.215 225.801H293.433V204.704Z" fill="white"/>
<path d="M315.165 225.801L323.233 204.704H326.232L334.857 225.801H331.673L329.231 219.416H320.451L318.133 225.801H315.165ZM321.255 217.134H328.396L326.201 211.304C325.49 209.454 324.996 207.973 324.717 206.925C324.439 208.282 324.068 209.608 323.574 210.965L321.255 217.134Z" fill="white"/>
<path d="M340.081 225.801V204.704H342.864V213.371H353.807V204.704H356.589V225.801H353.807V215.869H342.864V225.801H340.081Z" fill="white"/>
<path d="M369.48 225.801V207.202H362.556V204.704H379.218V207.202H372.263V225.801H369.48Z" fill="white"/>
<path d="M388.059 204.704V213.71H393.067C396.344 213.71 398.508 214.327 399.559 215.53C400.61 216.764 401.105 218.121 401.105 219.663C401.105 221.298 400.549 222.716 399.436 223.95C398.323 225.184 396.252 225.801 393.253 225.801H385.246V204.704H388.059ZM388.059 223.426H393.16C394.922 223.426 396.19 223.117 396.963 222.531C397.766 221.945 398.137 220.989 398.137 219.694C398.137 218.799 397.89 218.059 397.426 217.473C396.963 216.887 396.344 216.486 395.571 216.332C394.83 216.178 393.562 216.085 391.8 216.085H388.059V223.426ZM403.64 204.704H406.422V225.801H403.64V204.704Z" fill="white"/>
<path d="M435.388 215.53C435.388 212.014 436.316 209.269 438.201 207.295C440.087 205.321 442.498 204.334 445.435 204.334C448.403 204.334 450.814 205.352 452.669 207.357C454.524 209.361 455.482 212.014 455.482 215.283C455.482 218.553 454.555 221.174 452.669 223.179C450.783 225.184 448.372 226.171 445.435 226.171C443.333 226.171 441.478 225.646 439.871 224.567C438.294 223.518 437.119 222.13 436.439 220.465C435.728 218.83 435.388 217.165 435.388 215.53ZM438.263 215.561C438.263 217.966 438.912 219.94 440.211 221.452C441.509 222.994 443.24 223.734 445.435 223.734C447.568 223.734 449.299 222.994 450.629 221.483C451.958 219.971 452.607 217.905 452.607 215.252C452.607 212.569 451.927 210.472 450.598 208.96C449.269 207.449 447.537 206.709 445.435 206.709C443.395 206.709 441.664 207.418 440.273 208.837C438.943 210.256 438.263 212.507 438.263 215.561Z" fill="white"/>
<path d="M462.19 204.704H475.823V207.202H464.973V213.71H469.981C471.836 213.71 473.319 213.895 474.401 214.234C475.483 214.605 476.38 215.252 477.029 216.239C477.678 217.226 478.018 218.367 478.018 219.663C478.018 220.742 477.771 221.729 477.307 222.655C476.844 223.58 476.133 224.351 475.205 224.906C474.278 225.492 472.67 225.77 470.413 225.77H462.19V204.704ZM470.537 223.426C472.052 223.426 473.165 223.117 473.907 222.5C474.649 221.884 475.02 220.958 475.02 219.725C475.02 218.861 474.803 218.121 474.37 217.535C473.938 216.949 473.35 216.548 472.577 216.363C471.805 216.178 470.506 216.085 468.651 216.085H464.942V223.426H470.537Z" fill="white"/>
<path d="M482.161 204.704H484.974L491.837 217.627L497.834 204.704H500.616L492.733 221.112C491.744 223.179 490.94 224.505 490.322 225.153C489.704 225.801 488.776 226.109 487.602 226.109C486.89 226.109 485.994 225.955 484.974 225.616V223.21C485.716 223.642 486.52 223.857 487.354 223.857C488.034 223.857 488.622 223.642 489.116 223.21C489.611 222.778 490.136 221.791 490.755 220.218L482.161 204.704Z" fill="white"/>
<path d="M518.113 225.801V217.288C515.609 218.213 513.445 218.676 511.56 218.676C510.107 218.676 508.808 218.337 507.695 217.658C506.582 216.98 505.841 216.116 505.439 215.036C505.068 213.988 504.882 212.6 504.882 210.903V204.704H507.664V210.657C507.664 212.97 508.097 214.481 508.932 215.191C509.767 215.931 510.787 216.27 511.961 216.27C513.909 216.27 515.98 215.838 518.144 214.944V204.673H520.926V225.801H518.113Z" fill="white"/>
<path d="M528.469 225.801V204.704H543.679V207.202H531.252V213.648H542.906V216.116H531.252V223.302H544.174V225.801H528.469Z" fill="white"/>
<path d="M551.067 225.801V204.704H553.85V213.371H564.762V204.704H567.544V225.801H564.762V215.869H553.85V225.801H551.067Z" fill="white"/>
<path d="M575.18 204.704H577.684V221.421L588.875 204.704H591.688V225.801H589.153V209.145L577.962 225.801H575.18V204.704Z" fill="white"/>
<path d="M612.956 225.801V216.424H609.741C608.474 216.424 607.485 216.671 606.743 217.195C606.032 217.72 604.95 219.139 603.497 221.39L600.715 225.77H597.221L600.869 220.033C602.137 218.059 603.466 216.764 604.857 216.178C602.91 215.931 601.457 215.314 600.436 214.265C599.447 213.248 598.922 211.952 598.922 210.41C598.922 209.084 599.262 207.943 599.942 206.986C600.622 206.03 601.487 205.413 602.477 205.105C603.466 204.797 604.795 204.642 606.434 204.642H615.77V225.801H612.956ZM612.956 207.048H606.31C604.61 207.048 603.435 207.387 602.786 208.097C602.137 208.806 601.797 209.608 601.797 210.503C601.797 211.675 602.229 212.569 603.095 213.155C603.961 213.741 605.259 214.049 606.99 214.049H612.956V207.048Z" fill="white"/>
<path fill-rule="evenodd" clip-rule="evenodd" d="M679.05 207.141C683.625 206.956 687.458 210.503 687.644 215.067C687.829 219.632 684.305 223.487 679.73 223.703C675.186 223.888 671.322 220.341 671.136 215.777C670.951 211.181 674.506 207.326 679.05 207.141Z" fill="white"/>
<path fill-rule="evenodd" clip-rule="evenodd" d="M16.4152 207.141C20.9904 206.956 24.8237 210.503 25.0092 215.067C25.1946 219.632 21.6705 223.487 17.0953 223.703C12.5509 223.888 8.68674 220.341 8.50125 215.777C8.28486 211.181 11.8399 207.326 16.4152 207.141Z" fill="white"/>
</svg>
