<?xml version="1.0"?>
<svg width="428" height="926" xmlns="http://www.w3.org/2000/svg" xmlns:svg="http://www.w3.org/2000/svg">

 <g class="layer">
  <title>Layer 1</title>
  <rect fill="white" height="926" id="svg_1" width="428"/>
  <path d="m405.7,282.86c2.5,-2.51 6.56,-2.51 9.08,-0.02c2.51,2.5 2.52,6.56 0.02,9.06l-57.47,57.38c-2.5,2.51 -6.56,2.51 -9.08,0.02c-0.82,-0.83 -1.39,-1.82 -1.67,-2.87l-0.01,-0.01l-12.92,-48.04l-52.29,52.21l4.44,-1.18c3.43,-0.9 6.93,1.13 7.85,4.55c0.91,3.42 -1.12,6.92 -4.55,7.84l-27.15,7.25c-2.24,0.75 -4.82,0.24 -6.62,-1.55c-1.67,-1.68 -2.23,-4.05 -1.66,-6.2l-0.01,0l6.88,-25.69c0.92,-3.43 4.45,-5.46 7.89,-4.54c3.44,0.92 5.47,4.44 4.55,7.88l-0.67,2.53l60.06,-59.98c0.77,-0.79 1.77,-1.39 2.92,-1.71c3.43,-0.92 6.95,1.11 7.88,4.53l12.92,48.07l49.61,-49.53z" fill="#32348B" fill-opacity="0.2" id="svg_19" opacity="0.5"/>
  <path d="m189.79,160.83c-20.96,9.07 -41.93,18.13 -63.32,-0.33l0,41.31c19.16,23.49 38.95,14.93 58.75,6.37c20.96,-9.07 41.93,-18.13 63.32,0.33l0,-41.3c-19.16,-23.49 -38.95,-14.94 -58.75,-6.38zm-64.31,-18.03c19.47,25.01 39.6,16.31 59.74,7.61c24.31,-10.51 48.62,-21.03 73.6,11.38c0.8,1.03 1.17,2.25 1.17,3.45l0.01,0l0,57.76c0,3.15 -2.57,5.7 -5.73,5.7c-1.98,0 -3.73,-0.99 -4.75,-2.51c-19.47,-25.01 -39.6,-16.31 -59.74,-7.6c-24.31,10.51 -48.61,21.04 -73.59,-11.38c-0.8,-1.03 -1.18,-2.24 -1.17,-3.45l-0.02,0l0,-57.77c0,-3.15 2.57,-5.7 5.73,-5.7c1.98,0 3.73,1 4.75,2.51z" fill="#32348B" fill-opacity="0.08" id="svg_20"/>
 </g>
</svg>