<svg width="31" height="28" viewBox="0 0 31 28" fill="none" xmlns="http://www.w3.org/2000/svg">
<path d="M0.5 5.00005V17.6955C0.5 19.4779 2.65553 20.37 3.9151 19.1088L5.03516 17.9874C5.97302 17.0483 7.24573 16.5207 8.5729 16.5207H18C20.7614 16.5207 23 14.2821 23 11.5207V5.00004C23 2.23862 20.7614 4.12464e-05 18 4.12464e-05H5.5C2.73858 4.12464e-05 0.5 2.23862 0.5 5.00005Z" fill="#2E3190"/>
<path d="M20.25 18.7735H9.12829C7.67672 18.7735 6.5 19.9502 6.5 21.4018C6.5 22.8534 7.67673 24.0301 9.12829 24.0301H22.4646C23.7918 24.0301 25.0645 24.5577 26.0023 25.4968L27.0849 26.5807C28.3445 27.8418 30.5 26.9498 30.5 25.1673V8.63255C30.5 7.1828 29.3247 6.00755 27.875 6.00755C26.4253 6.00755 25.25 7.1828 25.25 8.63255V13.7735C25.25 16.5349 23.0114 18.7735 20.25 18.7735Z" fill="#2E3190"/>
</svg>
