<svg width="31" height="30" viewBox="0 0 31 30" fill="none" xmlns="http://www.w3.org/2000/svg">
<path d="M20.8398 28.5324C18.916 30.4586 15.8047 30.4917 13.8403 28.6068L1.67778 16.9365C0.695149 15.9936 0.139616 14.6908 0.139556 13.3289L0.139065 2.13986C0.139016 1.03525 1.03446 0.139771 2.13906 0.139771L13.3492 0.139771C14.7113 0.139771 16.0144 0.695433 16.9573 1.67832L28.6117 13.8264C30.4946 15.7891 30.4633 18.8968 28.5414 20.8212L20.8398 28.5324ZM6.58354 8.62916C7.14214 8.62916 7.6276 8.42275 8.0399 8.00993C8.4522 7.59712 8.65835 7.11106 8.65835 6.55176C8.65835 5.99245 8.4522 5.5064 8.0399 5.09358C7.6276 4.68076 7.14214 4.47435 6.58354 4.47435C6.02494 4.47435 5.53948 4.68076 5.12718 5.09358C4.71488 5.5064 4.50873 5.99245 4.50873 6.55176C4.50873 7.11106 4.71488 7.59712 5.12718 8.00993C5.53948 8.42275 6.02494 8.62916 6.58354 8.62916Z" fill="#CECECE"/>
</svg>
