<svg width="31" height="30" viewBox="0 0 31 30" fill="none" xmlns="http://www.w3.org/2000/svg">
<path d="M15.5 14.4928C13.3687 14.4928 11.625 13.8164 10.2688 12.4638C8.9125 11.1111 8.23438 9.37198 8.23438 7.24638C8.23438 5.12077 8.9125 3.38164 10.2688 2.02899C11.625 0.676329 13.3687 0 15.5 0C17.6313 0 19.375 0.676329 20.7312 2.02899C22.0875 3.38164 22.7656 5.12077 22.7656 7.24638C22.7656 9.37198 22.0875 11.1111 20.7312 12.4638C19.375 13.8164 17.6313 14.4928 15.5 14.4928ZM4.54106 30C2.0331 30 0 27.9669 0 25.4589C0 24.2351 0.306771 23.1884 0.920312 22.3188C1.53385 21.4493 2.325 20.7891 3.29375 20.3382C5.45729 19.372 7.53203 18.6473 9.51797 18.1643C11.5039 17.6812 13.4979 17.4396 15.5 17.4396C17.5021 17.4396 19.488 17.6892 21.4578 18.1884C23.4276 18.6876 25.4943 19.4042 27.6578 20.3382C28.6589 20.7891 29.4661 21.4493 30.0797 22.3188C30.6932 23.1884 31 24.2351 31 25.4589C31 27.9669 28.9669 30 26.4589 30H4.54106Z" fill="#2E3190"/>
</svg>
