<svg width="30" height="30" viewBox="0 0 30 30" fill="none" xmlns="http://www.w3.org/2000/svg">
<path d="M9.63224 7.6397L14.1086 3.16334C15.7281 1.54385 17.7246 0.783562 20.0981 0.882477C22.4715 0.981393 24.5385 1.91103 26.2988 3.67138C28.0592 5.43173 28.9937 7.50359 29.1026 9.88696C29.2114 12.2703 28.456 14.2718 26.8365 15.8913L22.3602 20.3676L19.9867 17.9941L24.463 13.5178C25.482 12.4988 25.9652 11.2442 25.9126 9.75402C25.86 8.26387 25.2699 6.95508 24.1425 5.82767C23.0349 4.72003 21.7311 4.13496 20.231 4.07244C18.731 4.00993 17.4714 4.48817 16.4524 5.50718L11.9761 9.98353L9.63224 7.6397ZM18.5233 9.48872L20.4815 11.4469L11.4742 20.4542L9.51604 18.496L18.5233 9.48872ZM7.66702 9.60492L10.0109 11.9488L5.5345 16.4251C4.51549 17.4441 4.0323 18.6987 4.08493 20.1889C4.13755 21.679 4.72757 22.9878 5.85499 24.1152C6.96262 25.2228 8.26646 25.8079 9.7665 25.8704C11.2665 25.9329 12.5261 25.4547 13.5451 24.4357L18.0214 19.9593L20.3949 22.3328L15.9186 26.8092C14.2991 28.4287 12.2931 29.1886 9.90064 29.0889C7.50816 28.9892 5.43175 28.0591 3.6714 26.2988C1.91105 24.5384 0.985969 22.467 0.89615 20.0844C0.806333 17.7018 1.57117 15.7008 3.19066 14.0813L7.66702 9.60492Z" fill="#2E3190"/>
</svg>
