<svg width="36" height="29" viewBox="0 0 36 29" fill="none" xmlns="http://www.w3.org/2000/svg">
<path d="M34.7353 23.613C34.0369 23.613 33.4706 23.026 33.4706 22.3019V15.9951C33.4706 13.7315 31.0594 12.2833 29.0612 13.3469L22.0004 17.1048C19.1733 18.6095 15.7964 18.669 12.9179 17.2649L2.52743 12.1963C0.281122 11.1006 0.281111 7.89948 2.52741 6.80372L12.8813 1.75302C15.7802 0.338905 19.1833 0.409883 22.0207 1.94364L33.3776 8.08251C34.9932 8.95581 36 10.6445 36 12.481V22.3019C36 23.026 35.4338 23.613 34.7353 23.613ZM22.1233 27.5665C19.2269 29.0911 15.7676 29.1016 12.8619 27.5948L7.28944 24.7049C5.99585 24.0341 5.18387 22.6983 5.18387 21.2411C5.18387 18.3581 8.20278 16.4707 10.7946 17.7334L13.0877 18.8505C15.8707 20.2063 19.1246 20.1967 21.8996 18.8246L24.0192 17.7765C26.6051 16.4979 29.6344 18.3794 29.6344 21.2642C29.6344 22.7086 28.8342 24.0342 27.5559 24.707L22.1233 27.5665Z" fill="#2E3190"/>
</svg>
